<?xml version="1.0" standalone="no"?>
<!DOCTYPE svg PUBLIC "-//W3C//DTD SVG 20010904//EN"
 "http://www.w3.org/TR/2001/REC-SVG-20010904/DTD/svg10.dtd">
<svg version="1.0" xmlns="http://www.w3.org/2000/svg"
 width="357.000000pt" height="357.000000pt" viewBox="0 0 357.000000 357.000000"
 preserveAspectRatio="xMidYMid meet">
<metadata>
Created by potrace 1.14, written by Peter Selinger 2001-2017
</metadata>
<g transform="translate(0.000000,357.000000) scale(0.100000,-0.100000)"
fill="#000000" stroke="none">
<path d="M1885 3260 c-11 -4 -24 -5 -29 -2 -5 3 -7 -2 -3 -11 11 -29 -63 -39
-90 -11 -9 9 -22 12 -32 8 -9 -4 -33 -6 -54 -5 -31 1 -40 -2 -44 -19 -6 -21
-28 -27 -38 -10 -4 6 -19 9 -35 8 -16 -1 -26 -6 -24 -10 3 -4 0 -8 -5 -8 -6 0
-21 -10 -33 -22 -14 -14 -23 -18 -26 -10 -6 20 -56 14 -70 -8 -7 -11 -21 -20
-31 -20 -11 0 -23 -4 -26 -10 -3 -5 -17 -10 -31 -10 -13 0 -24 -4 -24 -10 0
-5 -11 -10 -24 -10 -14 0 -28 -4 -31 -10 -3 -5 -15 -10 -25 -10 -10 0 -20 -5
-22 -11 -2 -6 -24 -11 -48 -11 -37 1 -49 -4 -72 -30 -20 -23 -36 -31 -59 -30
-18 0 -40 -7 -52 -19 -11 -10 -29 -19 -39 -19 -12 0 -23 -11 -29 -30 -6 -16
-17 -30 -25 -30 -8 0 -14 -4 -14 -10 0 -5 -7 -10 -15 -10 -8 0 -15 -4 -15 -10
0 -5 -5 -10 -11 -10 -6 0 -17 -7 -26 -16 -9 -8 -22 -13 -30 -10 -17 7 -43 -16
-43 -38 0 -10 -9 -16 -26 -16 -30 0 -51 -18 -60 -54 -5 -21 -12 -26 -35 -26
-19 0 -41 -12 -65 -34 -30 -28 -35 -39 -30 -60 6 -23 3 -26 -20 -26 -37 0 -67
-37 -60 -72 3 -16 1 -28 -5 -28 -15 0 -39 -26 -39 -43 0 -18 -34 -57 -49 -57
-7 0 -9 -4 -6 -10 3 -5 0 -10 -8 -10 -21 0 -57 -47 -57 -75 0 -14 5 -25 10
-25 21 0 9 -16 -20 -27 -31 -12 -42 -47 -17 -56 8 -4 9 -8 1 -14 -9 -7 -25
-37 -28 -53 -1 -3 -6 -18 -13 -35 -13 -34 -29 -102 -38 -157 -3 -22 -12 -38
-19 -38 -8 0 -17 -7 -20 -16 -7 -19 3 -64 15 -64 14 0 10 -30 -6 -46 -19 -20
-19 -53 0 -60 17 -7 21 -34 5 -34 -13 0 -13 -133 -1 -145 5 -6 11 -19 13 -30
1 -11 8 -24 13 -28 6 -6 6 -10 -2 -14 -28 -11 -9 -51 30 -66 9 -3 17 -15 17
-26 0 -11 5 -23 10 -26 6 -3 10 -13 10 -22 0 -9 8 -25 17 -35 11 -13 14 -22 7
-26 -27 -18 2 -77 32 -65 12 5 30 -34 20 -44 -6 -7 21 -59 46 -87 10 -11 18
-26 18 -33 0 -7 4 -13 9 -13 5 0 14 -13 20 -30 5 -16 15 -30 20 -30 6 0 13
-11 17 -25 3 -14 10 -23 14 -20 5 3 51 -36 103 -87 122 -119 155 -148 168
-148 5 0 7 -4 4 -10 -3 -5 0 -10 8 -10 8 0 22 -9 32 -20 10 -11 24 -20 32 -20
7 0 13 -4 13 -9 0 -5 8 -11 18 -14 23 -8 75 -40 84 -52 4 -5 8 -7 8 -3 0 4 22
-4 49 -17 27 -14 54 -25 60 -25 6 0 20 -4 31 -10 11 -5 29 -15 40 -20 11 -6
31 -10 44 -10 14 0 28 -4 31 -10 3 -5 17 -10 30 -10 13 0 26 -4 29 -8 2 -4 24
-9 47 -11 23 -1 47 -5 52 -8 33 -21 467 -40 512 -23 12 4 50 9 85 11 36 2 70
6 75 10 6 4 28 8 50 10 22 1 45 6 50 10 6 4 24 9 40 12 17 2 37 6 45 9 8 3 35
11 60 18 25 7 54 16 65 22 11 5 30 10 43 11 12 0 22 5 22 9 0 4 6 8 14 8 7 0
26 7 42 14 15 8 31 13 36 10 4 -3 8 0 8 5 0 6 9 11 19 11 11 0 21 3 23 8 4 10
87 52 104 52 8 0 14 4 14 8 0 4 12 13 28 19 30 14 64 34 72 45 3 3 18 10 33
13 15 4 27 11 27 16 0 5 7 13 17 16 16 6 46 31 98 80 13 13 27 23 31 23 4 0
14 8 23 18 9 10 31 27 49 37 17 11 32 25 32 32 0 7 5 13 11 13 5 0 7 5 4 10
-3 6 1 10 10 10 9 0 13 5 10 10 -3 6 1 10 10 10 9 0 13 4 10 10 -3 5 2 10 11
10 10 0 15 3 11 6 -6 7 0 15 55 74 20 22 40 49 43 60 4 11 10 20 14 20 5 0 14
13 21 30 7 17 16 30 21 30 5 0 9 6 9 13 0 18 24 67 33 67 4 0 7 9 7 20 0 11 4
20 9 20 5 0 12 11 15 25 3 13 10 34 15 47 5 13 9 26 11 30 1 4 11 31 22 60 25
66 58 181 65 228 3 19 9 37 13 40 11 7 9 242 -2 256 -10 14 10 114 23 114 18
0 8 28 -21 58 -34 36 -36 42 -15 42 22 0 30 46 12 65 -9 8 -14 26 -11 39 3 19
-2 26 -25 34 -15 6 -31 20 -34 32 -4 15 -2 20 7 17 8 -3 12 5 12 24 0 15 -6
31 -13 34 -8 2 -11 10 -8 15 4 6 4 22 1 36 -5 17 -13 24 -31 24 -22 0 -25 4
-25 39 0 22 -4 41 -10 43 -5 2 -11 15 -12 30 -2 27 -16 39 -51 43 -10 1 -25
12 -35 24 -9 13 -31 38 -49 57 -17 19 -29 34 -27 34 3 0 -7 11 -21 25 -14 14
-25 32 -25 40 0 17 -16 20 -25 4 -5 -6 -20 3 -40 25 -18 20 -40 36 -49 36 -10
0 -15 4 -12 9 3 5 -10 16 -29 25 -19 9 -35 22 -35 29 -1 33 -30 50 -85 52 -57
2 -95 23 -95 53 0 10 -8 13 -31 10 -22 -4 -35 1 -47 16 -32 38 -92 61 -92 35
0 -11 -4 -11 -95 12 -22 5 -45 10 -52 11 -6 1 -14 12 -18 25 -4 18 -12 23 -35
23 -17 0 -29 -5 -28 -11 5 -19 -19 -21 -36 -3 -10 9 -28 17 -42 17 -13 0 -24
3 -24 8 0 15 -50 10 -56 -5 -5 -14 -74 -18 -74 -5 0 14 -80 30 -99 20 -10 -6
-20 -9 -22 -7 -10 8 -76 13 -94 6z m70 -1302 c9 -9 -19 -38 -37 -38 -8 0 -19
-5 -25 -11 -10 -10 -32 -16 -60 -18 -7 -1 -13 -8 -13 -16 0 -9 -9 -15 -25 -15
-14 0 -25 -4 -25 -10 0 -5 -16 -10 -35 -10 -19 0 -35 -4 -35 -10 0 -5 -7 -10
-15 -10 -8 0 -15 4 -15 8 0 5 -11 14 -25 20 -17 8 -25 8 -25 1 0 -18 -45 -5
-48 14 -2 12 3 17 17 17 12 0 21 5 21 10 0 6 9 10 19 10 11 0 23 5 26 10 3 6
17 10 31 10 13 0 24 5 24 10 0 6 15 10 33 10 18 0 37 4 43 9 14 15 156 22 169
9z"/>
<path d="M1480 3220 c0 -5 5 -10 10 -10 6 0 10 5 10 10 0 6 -4 10 -10 10 -5 0
-10 -4 -10 -10z"/>
</g>
</svg>
